<svg viewBox="0 0 560 520" xmlns="http://www.w3.org/2000/svg" font-family="-apple-system,Segoe UI,Helvetica,Arial,sans-serif" role="img" aria-label="Polymarket calibration backtest">
<title>Polymarket 开赛前赔率校准 · 50场回测</title>
<desc>市场隐含概率 vs 实际发生频率;点越贴近对角线说明概率越可信。</desc>
<rect x="0" y="0" width="560" height="520" fill="#ffffff"/>
<rect x="0.5" y="0.5" width="559" height="519" fill="none" stroke="#e6e6e0"/>
<text x="30" y="34" font-size="19" font-weight="700" fill="#16182b">市场说的概率,到底准不准?</text>
<text x="30" y="52" font-size="12.5" fill="#6b6f80">Polymarket 开赛前60分钟真实成交价 vs 真实赛果 · 50场 / 150条结果腿</text>
<line x1="80.0" y1="60" x2="80.0" y2="420" stroke="#f0f0ec"/>
<line x1="80" y1="420.0" x2="440" y2="420.0" stroke="#f0f0ec"/>
<text x="80.0" y="438" font-size="11" fill="#9a9aa5" text-anchor="middle">0%</text>
<text x="70" y="424.0" font-size="11" fill="#9a9aa5" text-anchor="end">0%</text>
<line x1="170.0" y1="60" x2="170.0" y2="420" stroke="#f0f0ec"/>
<line x1="80" y1="330.0" x2="440" y2="330.0" stroke="#f0f0ec"/>
<text x="170.0" y="438" font-size="11" fill="#9a9aa5" text-anchor="middle">25%</text>
<text x="70" y="334.0" font-size="11" fill="#9a9aa5" text-anchor="end">25%</text>
<line x1="260.0" y1="60" x2="260.0" y2="420" stroke="#f0f0ec"/>
<line x1="80" y1="240.0" x2="440" y2="240.0" stroke="#f0f0ec"/>
<text x="260.0" y="438" font-size="11" fill="#9a9aa5" text-anchor="middle">50%</text>
<text x="70" y="244.0" font-size="11" fill="#9a9aa5" text-anchor="end">50%</text>
<line x1="350.0" y1="60" x2="350.0" y2="420" stroke="#f0f0ec"/>
<line x1="80" y1="150.0" x2="440" y2="150.0" stroke="#f0f0ec"/>
<text x="350.0" y="438" font-size="11" fill="#9a9aa5" text-anchor="middle">75%</text>
<text x="70" y="154.0" font-size="11" fill="#9a9aa5" text-anchor="end">75%</text>
<line x1="440.0" y1="60" x2="440.0" y2="420" stroke="#f0f0ec"/>
<line x1="80" y1="60.0" x2="440" y2="60.0" stroke="#f0f0ec"/>
<text x="440.0" y="438" font-size="11" fill="#9a9aa5" text-anchor="middle">100%</text>
<text x="70" y="64.0" font-size="11" fill="#9a9aa5" text-anchor="end">100%</text>
<rect x="80" y="60" width="360" height="360" fill="none" stroke="#d6d6cf"/>
<line x1="80.0" y1="420.0" x2="440.0" y2="60.0" stroke="#b9b9c4" stroke-width="1.6" stroke-dasharray="6 5"/>
<text x="434.0" y="76.0" font-size="10.5" fill="#b0b0bb" text-anchor="end" font-style="italic">完美校准线</text>
<circle cx="100.9" cy="402.7" r="10.9" fill="#2f7d6b" fill-opacity="0.34" stroke="#2f7d6b" stroke-width="1.4"/>
<text x="100.9" y="406.2" font-size="9" fill="#1c4d42" text-anchor="middle">n=21</text>
<circle cx="132.6" cy="345.8" r="12.7" fill="#2f7d6b" fill-opacity="0.34" stroke="#2f7d6b" stroke-width="1.4"/>
<text x="132.6" y="349.3" font-size="9" fill="#1c4d42" text-anchor="middle">n=34</text>
<circle cx="167.8" cy="336.8" r="13.4" fill="#2f7d6b" fill-opacity="0.34" stroke="#2f7d6b" stroke-width="1.4"/>
<text x="167.8" y="340.3" font-size="9" fill="#1c4d42" text-anchor="middle">n=39</text>
<circle cx="201.7" cy="340.1" r="8.5" fill="#2f7d6b" fill-opacity="0.34" stroke="#2f7d6b" stroke-width="1.4"/>
<text x="201.7" y="343.6" font-size="9" fill="#1c4d42" text-anchor="middle">n=9</text>
<circle cx="241.3" cy="179.9" r="7.7" fill="#2f7d6b" fill-opacity="0.34" stroke="#2f7d6b" stroke-width="1.4"/>
<text x="241.3" y="183.4" font-size="9" fill="#1c4d42" text-anchor="middle">n=6</text>
<circle cx="290.6" cy="187.1" r="10.2" fill="#2f7d6b" fill-opacity="0.34" stroke="#2f7d6b" stroke-width="1.4"/>
<text x="290.6" y="190.6" font-size="9" fill="#1c4d42" text-anchor="middle">n=17</text>
<circle cx="359.4" cy="179.9" r="11.3" fill="#2f7d6b" fill-opacity="0.34" stroke="#2f7d6b" stroke-width="1.4"/>
<text x="359.4" y="183.4" font-size="9" fill="#1c4d42" text-anchor="middle">n=24</text>
<text x="167.8" y="366.8" font-size="10.5" fill="#2f7d6b" text-anchor="middle">低概率事件:报得极准</text>
<text x="357.4" y="157.9" font-size="10.5" fill="#b5760e" text-anchor="middle">强热门略被高估</text>
<text x="359.4" y="170.9" font-size="9.5" fill="#b5760e" text-anchor="middle">(被逼平拖累)</text>
<text x="260.0" y="458" font-size="12.5" fill="#41434f" text-anchor="middle" font-weight="600">市场说会发生的概率  →</text>
<text x="26" y="240.0" font-size="12.5" fill="#41434f" text-anchor="middle" font-weight="600" transform="rotate(-90 26 240.0)">↑  实际发生的频率</text>
<rect x="30" y="470" width="500" height="34" rx="6" fill="#f6f6f1"/>
<text x="42" y="492" font-size="11.5" fill="#2b2d3a">庄家热门 报64.8% → 实赢66.0%   ·   Brier 0.527 (随机0.667)   ·   去掉平局命中率 89%</text>
<text x="30" y="514" font-size="9.5" fill="#a9a9b3">World Cup EV Predator · 回测 by JASON WANG · 来源 Polymarket API (T-60min) vs 真实赛果</text>
</svg>